<svg xmlns="http://www.w3.org/2000/svg" viewBox="0 0 2834.65 2834.65"><defs><style>.cls-1{fill:#444;}.cls-2{fill:#fff;}</style></defs><g id="Layer_1" data-name="Layer 1"><circle class="cls-1" cx="1417.32" cy="1417.32" r="1417.32"/></g><g id="Layer_2" data-name="Layer 2"><path class="cls-2" d="M1842.52,726.38H992.13c-147.64,0-265.75,118.11-265.75,265.75v850.39c0,147.64,118.11,265.75,265.75,265.75h850.39c147.64,0,265.75-118.11,265.75-265.75V992.13c0-147.64-118.11-265.75-265.75-265.75Zm76.77,159.45h29.53v236.22H1712.6V885.83Zm-696.85,389.76c41.34-59,118.11-100.39,194.89-100.39s153.54,41.34,194.88,100.39c29.52,41.34,47.24,88.58,47.24,141.73,0,135.83-112.2,242.13-242.12,242.13s-242.13-106.3-242.13-242.13C1175.2,1364.17,1192.92,1316.93,1222.44,1275.59Zm750,566.93c0,70.87-59,129.92-129.92,129.92H992.13c-70.87,0-129.92-59-129.92-129.92V1275.59H1068.9c-17.72,41.34-29.53,94.49-29.53,141.73,0,206.7,171.26,378,378,378s378-171.26,378-378c0-47.24-11.81-100.39-29.53-141.73h206.69Z" transform="translate(0)"/></g></svg>